M48
; DRILL file {KiCad (6.0.2)} date Fri Sep 16 18:12:18 2022
; FORMAT={-:-/ absolute / metric / decimal}
; #@! TF.CreationDate,2022-09-16T18:12:18-05:00
; #@! TF.GenerationSoftware,Kicad,Pcbnew,(6.0.2)
; #@! TF.FileFunction,Plated,1,2,PTH
FMAT,2
METRIC
; #@! TA.AperFunction,Plated,PTH,ViaDrill
T1C0.400
; #@! TA.AperFunction,Plated,PTH,ComponentDrill
T2C1.110
; #@! TA.AperFunction,Plated,PTH,ComponentDrill
T3C1.200
; #@! TA.AperFunction,Plated,PTH,ComponentDrill
T4C4.680
%
G90
G05
T1
X127.598Y-138.64
X130.311Y-112.238
X132.018Y-116.502
X132.078Y-138.653
X132.745Y-111.652
X132.824Y-71.97
X133.55Y-128.942
X133.746Y-111.271
X133.913Y-104.7
X134.054Y-130.648
X134.151Y-106.121
X134.515Y-135.856
X134.626Y-123.305
X134.717Y-137.33
X135.073Y-104.897
X135.518Y-138.099
X135.824Y-107.791
X136.595Y-138.15
X136.672Y-119.222
X136.691Y-107.047
X136.946Y-114.19
X137.647Y-138.411
X137.76Y-129.178
X137.886Y-130.429
X137.947Y-124.623
X138.338Y-103.35
X138.992Y-98.279
X139.164Y-138.15
X139.289Y-107.065
X139.731Y-121.62
X140.305Y-107.523
X140.37Y-137.911
X140.712Y-133.296
X141.134Y-137.26
X141.417Y-108.257
X141.527Y-130.967
X142.134Y-137.394
X143.253Y-136.461
X143.685Y-128.096
X144.253Y-136.425
X146.357Y-114.105
X146.803Y-86.745
X148.082Y-138.294
X148.992Y-118.543
X150.112Y-123.874
X150.262Y-119.098
X150.901Y-135.848
X151.445Y-85.906
X151.746Y-83.813
X152.476Y-85.127
X152.98Y-123.221
X153.09Y-107.217
X153.609Y-132.85
X153.748Y-121.867
X154.732Y-128.473
X154.751Y-106.931
X154.754Y-104.151
X154.788Y-105.581
X154.793Y-103.028
X155.02Y-99.582
X155.501Y-119.952
X156.677Y-131.922
X157.164Y-133.521
X158.289Y-124.215
X158.606Y-108.133
X159.353Y-124.498
X159.38Y-130.276
X159.738Y-118.904
X159.827Y-113.651
X160.098Y-123.507
X160.548Y-124.48
X160.691Y-138.655
X160.729Y-119.424
X160.869Y-112.206
X161.073Y-94.607
X161.629Y-130.1
X161.655Y-116.198
X162.103Y-112.98
X162.106Y-100.264
X162.608Y-101.333
X162.723Y-129.236
X163.091Y-112.477
X163.337Y-105.948
X163.351Y-106.996
X163.475Y-63.922
X163.557Y-100.278
X164.309Y-131.075
X164.475Y-123.23
X164.693Y-119.613
X164.811Y-115.874
X165.458Y-100.933
X165.779Y-130.642
X165.801Y-112.68
X166.053Y-67.844
X166.129Y-111.646
X166.253Y-100.261
X167.006Y-100.958
X167.256Y-111.667
X167.409Y-130.334
X167.749Y-103.521
X167.804Y-115.847
X167.819Y-114.304
X167.837Y-100.259
X168.556Y-130.658
X168.574Y-128.418
X168.593Y-101.879
X168.595Y-105.651
X170.35Y-99.45
X170.611Y-138.341
X171.024Y-114.814
X171.508Y-113.198
X171.956Y-108.78
X172.086Y-125.077
X172.092Y-127.537
X172.102Y-126.14
X172.12Y-101.519
X172.404Y-121.802
X173.058Y-135.276
X173.355Y-102.542
X174.395Y-121.423
X175.007Y-129.521
T2
X124.984Y-66.008
X128.824Y-65.999
X131.368Y-66.0
X133.909Y-65.998
X137.756Y-66.005
T3
X126.413Y-75.276
X127.917Y-73.769
X129.432Y-75.284
X130.939Y-73.769
X132.446Y-75.276
X133.953Y-73.769
X135.498Y-75.274
X137.049Y-73.771
X138.481Y-75.361
X139.984Y-73.766
X141.417Y-75.275
X142.962Y-73.767
X144.43Y-75.277
X145.978Y-73.769
X147.447Y-75.275
X148.992Y-73.768
X150.462Y-75.277
X152.013Y-73.767
X153.45Y-75.352
X154.949Y-73.768
X156.413Y-75.276
X157.965Y-73.768
X159.473Y-75.276
X161.022Y-73.769
X162.448Y-75.275
X163.998Y-73.768
X165.466Y-75.276
X167.012Y-73.768
X168.482Y-75.274
X170.03Y-73.768
X171.498Y-75.276
X173.045Y-73.768
T4
X149.429Y-131.234
T0
M30
