%TF.GenerationSoftware,KiCad,Pcbnew,(6.0.2)*%
%TF.CreationDate,2022-06-06T00:03:40-05:00*%
%TF.ProjectId,REF1347,52454631-3334-4372-9e6b-696361645f70,rev?*%
%TF.SameCoordinates,Original*%
%TF.FileFunction,Legend,Top*%
%TF.FilePolarity,Positive*%
%FSLAX46Y46*%
G04 Gerber Fmt 4.6, Leading zero omitted, Abs format (unit mm)*
G04 Created by KiCad (PCBNEW (6.0.2)) date 2022-06-06 00:03:40*
%MOMM*%
%LPD*%
G01*
G04 APERTURE LIST*
%ADD10C,0.150000*%
%ADD11C,0.125000*%
G04 APERTURE END LIST*
D10*
X127598523Y-61541619D02*
X127646142Y-61494000D01*
X127741380Y-61446380D01*
X127979476Y-61446380D01*
X128074714Y-61494000D01*
X128122333Y-61541619D01*
X128169952Y-61636857D01*
X128169952Y-61732095D01*
X128122333Y-61874952D01*
X127550904Y-62446380D01*
X128169952Y-62446380D01*
X129360428Y-62446380D02*
X129360428Y-61446380D01*
X129741380Y-61446380D01*
X129836619Y-61494000D01*
X129884238Y-61541619D01*
X129931857Y-61636857D01*
X129931857Y-61779714D01*
X129884238Y-61874952D01*
X129836619Y-61922571D01*
X129741380Y-61970190D01*
X129360428Y-61970190D01*
X130503285Y-62446380D02*
X130408047Y-62398761D01*
X130360428Y-62351142D01*
X130312809Y-62255904D01*
X130312809Y-61970190D01*
X130360428Y-61874952D01*
X130408047Y-61827333D01*
X130503285Y-61779714D01*
X130646142Y-61779714D01*
X130741380Y-61827333D01*
X130789000Y-61874952D01*
X130836619Y-61970190D01*
X130836619Y-62255904D01*
X130789000Y-62351142D01*
X130741380Y-62398761D01*
X130646142Y-62446380D01*
X130503285Y-62446380D01*
X131217571Y-62398761D02*
X131312809Y-62446380D01*
X131503285Y-62446380D01*
X131598523Y-62398761D01*
X131646142Y-62303523D01*
X131646142Y-62255904D01*
X131598523Y-62160666D01*
X131503285Y-62113047D01*
X131360428Y-62113047D01*
X131265190Y-62065428D01*
X131217571Y-61970190D01*
X131217571Y-61922571D01*
X131265190Y-61827333D01*
X131360428Y-61779714D01*
X131503285Y-61779714D01*
X131598523Y-61827333D01*
X132074714Y-62446380D02*
X132074714Y-61779714D01*
X132074714Y-61446380D02*
X132027095Y-61494000D01*
X132074714Y-61541619D01*
X132122333Y-61494000D01*
X132074714Y-61446380D01*
X132074714Y-61541619D01*
X132408047Y-61779714D02*
X132788999Y-61779714D01*
X132550904Y-61446380D02*
X132550904Y-62303523D01*
X132598523Y-62398761D01*
X132693761Y-62446380D01*
X132788999Y-62446380D01*
X133122333Y-62446380D02*
X133122333Y-61779714D01*
X133122333Y-61446380D02*
X133074714Y-61494000D01*
X133122333Y-61541619D01*
X133169952Y-61494000D01*
X133122333Y-61446380D01*
X133122333Y-61541619D01*
X133741380Y-62446380D02*
X133646142Y-62398761D01*
X133598523Y-62351142D01*
X133550904Y-62255904D01*
X133550904Y-61970190D01*
X133598523Y-61874952D01*
X133646142Y-61827333D01*
X133741380Y-61779714D01*
X133884238Y-61779714D01*
X133979476Y-61827333D01*
X134027095Y-61874952D01*
X134074714Y-61970190D01*
X134074714Y-62255904D01*
X134027095Y-62351142D01*
X133979476Y-62398761D01*
X133884238Y-62446380D01*
X133741380Y-62446380D01*
X134503285Y-61779714D02*
X134503285Y-62446380D01*
X134503285Y-61874952D02*
X134550904Y-61827333D01*
X134646142Y-61779714D01*
X134789000Y-61779714D01*
X134884238Y-61827333D01*
X134931857Y-61922571D01*
X134931857Y-62446380D01*
X129074714Y-64008761D02*
X129217571Y-64056380D01*
X129455666Y-64056380D01*
X129550904Y-64008761D01*
X129598523Y-63961142D01*
X129646142Y-63865904D01*
X129646142Y-63770666D01*
X129598523Y-63675428D01*
X129550904Y-63627809D01*
X129455666Y-63580190D01*
X129265190Y-63532571D01*
X129169952Y-63484952D01*
X129122333Y-63437333D01*
X129074714Y-63342095D01*
X129074714Y-63246857D01*
X129122333Y-63151619D01*
X129169952Y-63104000D01*
X129265190Y-63056380D01*
X129503285Y-63056380D01*
X129646142Y-63104000D01*
X129979476Y-63389714D02*
X130169952Y-64056380D01*
X130360428Y-63580190D01*
X130550904Y-64056380D01*
X130741380Y-63389714D01*
X131122333Y-64056380D02*
X131122333Y-63389714D01*
X131122333Y-63056380D02*
X131074714Y-63104000D01*
X131122333Y-63151619D01*
X131169952Y-63104000D01*
X131122333Y-63056380D01*
X131122333Y-63151619D01*
X131455666Y-63389714D02*
X131836619Y-63389714D01*
X131598523Y-63056380D02*
X131598523Y-63913523D01*
X131646142Y-64008761D01*
X131741380Y-64056380D01*
X131836619Y-64056380D01*
X132598523Y-64008761D02*
X132503285Y-64056380D01*
X132312809Y-64056380D01*
X132217571Y-64008761D01*
X132169952Y-63961142D01*
X132122333Y-63865904D01*
X132122333Y-63580190D01*
X132169952Y-63484952D01*
X132217571Y-63437333D01*
X132312809Y-63389714D01*
X132503285Y-63389714D01*
X132598523Y-63437333D01*
X133027095Y-64056380D02*
X133027095Y-63056380D01*
X133455666Y-64056380D02*
X133455666Y-63532571D01*
X133408047Y-63437333D01*
X133312809Y-63389714D01*
X133169952Y-63389714D01*
X133074714Y-63437333D01*
X133027095Y-63484952D01*
D11*
X160536857Y-69660190D02*
X160251142Y-69660190D01*
X160394000Y-69660190D02*
X160394000Y-69160190D01*
X160346380Y-69231619D01*
X160298761Y-69279238D01*
X160251142Y-69303047D01*
X161132095Y-69469714D02*
X161513047Y-69469714D01*
D10*
X162948000Y-65640380D02*
X162948000Y-64640380D01*
X163328952Y-64640380D01*
X163424190Y-64688000D01*
X163471809Y-64735619D01*
X163519428Y-64830857D01*
X163519428Y-64973714D01*
X163471809Y-65068952D01*
X163424190Y-65116571D01*
X163328952Y-65164190D01*
X162948000Y-65164190D01*
X163948000Y-65640380D02*
X163948000Y-64640380D01*
X164995619Y-65545142D02*
X164948000Y-65592761D01*
X164805142Y-65640380D01*
X164709904Y-65640380D01*
X164567047Y-65592761D01*
X164471809Y-65497523D01*
X164424190Y-65402285D01*
X164376571Y-65211809D01*
X164376571Y-65068952D01*
X164424190Y-64878476D01*
X164471809Y-64783238D01*
X164567047Y-64688000D01*
X164709904Y-64640380D01*
X164805142Y-64640380D01*
X164948000Y-64688000D01*
X164995619Y-64735619D01*
X161400380Y-67250380D02*
X160828952Y-67250380D01*
X161114666Y-67250380D02*
X161114666Y-66250380D01*
X161019428Y-66393238D01*
X160924190Y-66488476D01*
X160828952Y-66536095D01*
X161781333Y-66345619D02*
X161828952Y-66298000D01*
X161924190Y-66250380D01*
X162162285Y-66250380D01*
X162257523Y-66298000D01*
X162305142Y-66345619D01*
X162352761Y-66440857D01*
X162352761Y-66536095D01*
X162305142Y-66678952D01*
X161733714Y-67250380D01*
X162352761Y-67250380D01*
X163352761Y-67155142D02*
X163305142Y-67202761D01*
X163162285Y-67250380D01*
X163067047Y-67250380D01*
X162924190Y-67202761D01*
X162828952Y-67107523D01*
X162781333Y-67012285D01*
X162733714Y-66821809D01*
X162733714Y-66678952D01*
X162781333Y-66488476D01*
X162828952Y-66393238D01*
X162924190Y-66298000D01*
X163067047Y-66250380D01*
X163162285Y-66250380D01*
X163305142Y-66298000D01*
X163352761Y-66345619D01*
X164257523Y-66250380D02*
X163781333Y-66250380D01*
X163733714Y-66726571D01*
X163781333Y-66678952D01*
X163876571Y-66631333D01*
X164114666Y-66631333D01*
X164209904Y-66678952D01*
X164257523Y-66726571D01*
X164305142Y-66821809D01*
X164305142Y-67059904D01*
X164257523Y-67155142D01*
X164209904Y-67202761D01*
X164114666Y-67250380D01*
X163876571Y-67250380D01*
X163781333Y-67202761D01*
X163733714Y-67155142D01*
X164924190Y-66250380D02*
X165019428Y-66250380D01*
X165114666Y-66298000D01*
X165162285Y-66345619D01*
X165209904Y-66440857D01*
X165257523Y-66631333D01*
X165257523Y-66869428D01*
X165209904Y-67059904D01*
X165162285Y-67155142D01*
X165114666Y-67202761D01*
X165019428Y-67250380D01*
X164924190Y-67250380D01*
X164828952Y-67202761D01*
X164781333Y-67155142D01*
X164733714Y-67059904D01*
X164686095Y-66869428D01*
X164686095Y-66631333D01*
X164733714Y-66440857D01*
X164781333Y-66345619D01*
X164828952Y-66298000D01*
X164924190Y-66250380D01*
X165828952Y-66678952D02*
X165733714Y-66631333D01*
X165686095Y-66583714D01*
X165638476Y-66488476D01*
X165638476Y-66440857D01*
X165686095Y-66345619D01*
X165733714Y-66298000D01*
X165828952Y-66250380D01*
X166019428Y-66250380D01*
X166114666Y-66298000D01*
X166162285Y-66345619D01*
X166209904Y-66440857D01*
X166209904Y-66488476D01*
X166162285Y-66583714D01*
X166114666Y-66631333D01*
X166019428Y-66678952D01*
X165828952Y-66678952D01*
X165733714Y-66726571D01*
X165686095Y-66774190D01*
X165638476Y-66869428D01*
X165638476Y-67059904D01*
X165686095Y-67155142D01*
X165733714Y-67202761D01*
X165828952Y-67250380D01*
X166019428Y-67250380D01*
X166114666Y-67202761D01*
X166162285Y-67155142D01*
X166209904Y-67059904D01*
X166209904Y-66869428D01*
X166162285Y-66774190D01*
X166114666Y-66726571D01*
X166019428Y-66678952D01*
X166590857Y-66964666D02*
X167067047Y-66964666D01*
X166495619Y-67250380D02*
X166828952Y-66250380D01*
X167162285Y-67250380D01*
D11*
X143085476Y-64961190D02*
X142799761Y-64961190D01*
X142942619Y-64961190D02*
X142942619Y-64461190D01*
X142895000Y-64532619D01*
X142847380Y-64580238D01*
X142799761Y-64604047D01*
X143395000Y-64461190D02*
X143442619Y-64461190D01*
X143490238Y-64485000D01*
X143514047Y-64508809D01*
X143537857Y-64556428D01*
X143561666Y-64651666D01*
X143561666Y-64770714D01*
X143537857Y-64865952D01*
X143514047Y-64913571D01*
X143490238Y-64937380D01*
X143442619Y-64961190D01*
X143395000Y-64961190D01*
X143347380Y-64937380D01*
X143323571Y-64913571D01*
X143299761Y-64865952D01*
X143275952Y-64770714D01*
X143275952Y-64651666D01*
X143299761Y-64556428D01*
X143323571Y-64508809D01*
X143347380Y-64485000D01*
X143395000Y-64461190D01*
X143775952Y-64961190D02*
X143775952Y-64461190D01*
X143823571Y-64770714D02*
X143966428Y-64961190D01*
X143966428Y-64627857D02*
X143775952Y-64818333D01*
X144656904Y-64461190D02*
X144752142Y-64461190D01*
X144799761Y-64485000D01*
X144847380Y-64532619D01*
X144871190Y-64627857D01*
X144871190Y-64794523D01*
X144847380Y-64889761D01*
X144799761Y-64937380D01*
X144752142Y-64961190D01*
X144656904Y-64961190D01*
X144609285Y-64937380D01*
X144561666Y-64889761D01*
X144537857Y-64794523D01*
X144537857Y-64627857D01*
X144561666Y-64532619D01*
X144609285Y-64485000D01*
X144656904Y-64461190D01*
X145085476Y-64961190D02*
X145085476Y-64461190D01*
X145299761Y-64961190D02*
X145299761Y-64699285D01*
X145275952Y-64651666D01*
X145228333Y-64627857D01*
X145156904Y-64627857D01*
X145109285Y-64651666D01*
X145085476Y-64675476D01*
X145537857Y-64961190D02*
X145537857Y-64627857D01*
X145537857Y-64675476D02*
X145561666Y-64651666D01*
X145609285Y-64627857D01*
X145680714Y-64627857D01*
X145728333Y-64651666D01*
X145752142Y-64699285D01*
X145752142Y-64961190D01*
X145752142Y-64699285D02*
X145775952Y-64651666D01*
X145823571Y-64627857D01*
X145895000Y-64627857D01*
X145942619Y-64651666D01*
X145966428Y-64699285D01*
X145966428Y-64961190D01*
D10*
X162220380Y-125587666D02*
X162696571Y-125587666D01*
X162125142Y-125873380D02*
X162458476Y-124873380D01*
X162791809Y-125873380D01*
X162982285Y-124873380D02*
X163553714Y-124873380D01*
X163268000Y-125873380D02*
X163268000Y-124873380D01*
X163887047Y-125873380D02*
X163887047Y-124873380D01*
X164220380Y-125587666D01*
X164553714Y-124873380D01*
X164553714Y-125873380D01*
X165029904Y-125349571D02*
X165363238Y-125349571D01*
X165506095Y-125873380D02*
X165029904Y-125873380D01*
X165029904Y-124873380D01*
X165506095Y-124873380D01*
X166410857Y-125873380D02*
X165934666Y-125873380D01*
X165934666Y-124873380D01*
X160768000Y-127197666D02*
X161244190Y-127197666D01*
X160672761Y-127483380D02*
X161006095Y-126483380D01*
X161339428Y-127483380D01*
X161529904Y-126483380D02*
X162101333Y-126483380D01*
X161815619Y-127483380D02*
X161815619Y-126483380D01*
X162387047Y-126578619D02*
X162434666Y-126531000D01*
X162529904Y-126483380D01*
X162768000Y-126483380D01*
X162863238Y-126531000D01*
X162910857Y-126578619D01*
X162958476Y-126673857D01*
X162958476Y-126769095D01*
X162910857Y-126911952D01*
X162339428Y-127483380D01*
X162958476Y-127483380D01*
X163291809Y-126483380D02*
X163958476Y-126483380D01*
X163529904Y-127483380D01*
X164910857Y-127388142D02*
X164863238Y-127435761D01*
X164720380Y-127483380D01*
X164625142Y-127483380D01*
X164482285Y-127435761D01*
X164387047Y-127340523D01*
X164339428Y-127245285D01*
X164291809Y-127054809D01*
X164291809Y-126911952D01*
X164339428Y-126721476D01*
X164387047Y-126626238D01*
X164482285Y-126531000D01*
X164625142Y-126483380D01*
X164720380Y-126483380D01*
X164863238Y-126531000D01*
X164910857Y-126578619D01*
X165529904Y-126483380D02*
X165625142Y-126483380D01*
X165720380Y-126531000D01*
X165768000Y-126578619D01*
X165815619Y-126673857D01*
X165863238Y-126864333D01*
X165863238Y-127102428D01*
X165815619Y-127292904D01*
X165768000Y-127388142D01*
X165720380Y-127435761D01*
X165625142Y-127483380D01*
X165529904Y-127483380D01*
X165434666Y-127435761D01*
X165387047Y-127388142D01*
X165339428Y-127292904D01*
X165291809Y-127102428D01*
X165291809Y-126864333D01*
X165339428Y-126673857D01*
X165387047Y-126578619D01*
X165434666Y-126531000D01*
X165529904Y-126483380D01*
X166815619Y-127483380D02*
X166244190Y-127483380D01*
X166529904Y-127483380D02*
X166529904Y-126483380D01*
X166434666Y-126626238D01*
X166339428Y-126721476D01*
X166244190Y-126769095D01*
X167434666Y-126483380D02*
X167529904Y-126483380D01*
X167625142Y-126531000D01*
X167672761Y-126578619D01*
X167720380Y-126673857D01*
X167768000Y-126864333D01*
X167768000Y-127102428D01*
X167720380Y-127292904D01*
X167672761Y-127388142D01*
X167625142Y-127435761D01*
X167529904Y-127483380D01*
X167434666Y-127483380D01*
X167339428Y-127435761D01*
X167291809Y-127388142D01*
X167244190Y-127292904D01*
X167196571Y-127102428D01*
X167196571Y-126864333D01*
X167244190Y-126673857D01*
X167291809Y-126578619D01*
X167339428Y-126531000D01*
X167434666Y-126483380D01*
D11*
X158176952Y-127192714D02*
X158557904Y-127192714D01*
X159438857Y-127383190D02*
X159153142Y-127383190D01*
X159296000Y-127383190D02*
X159296000Y-126883190D01*
X159248380Y-126954619D01*
X159200761Y-127002238D01*
X159153142Y-127026047D01*
D10*
X162352142Y-103250761D02*
X162495000Y-103298380D01*
X162733095Y-103298380D01*
X162828333Y-103250761D01*
X162875952Y-103203142D01*
X162923571Y-103107904D01*
X162923571Y-103012666D01*
X162875952Y-102917428D01*
X162828333Y-102869809D01*
X162733095Y-102822190D01*
X162542619Y-102774571D01*
X162447380Y-102726952D01*
X162399761Y-102679333D01*
X162352142Y-102584095D01*
X162352142Y-102488857D01*
X162399761Y-102393619D01*
X162447380Y-102346000D01*
X162542619Y-102298380D01*
X162780714Y-102298380D01*
X162923571Y-102346000D01*
X163304523Y-103250761D02*
X163447380Y-103298380D01*
X163685476Y-103298380D01*
X163780714Y-103250761D01*
X163828333Y-103203142D01*
X163875952Y-103107904D01*
X163875952Y-103012666D01*
X163828333Y-102917428D01*
X163780714Y-102869809D01*
X163685476Y-102822190D01*
X163495000Y-102774571D01*
X163399761Y-102726952D01*
X163352142Y-102679333D01*
X163304523Y-102584095D01*
X163304523Y-102488857D01*
X163352142Y-102393619D01*
X163399761Y-102346000D01*
X163495000Y-102298380D01*
X163733095Y-102298380D01*
X163875952Y-102346000D01*
X164161666Y-102298380D02*
X164733095Y-102298380D01*
X164447380Y-103298380D02*
X164447380Y-102298380D01*
X160471190Y-104003619D02*
X160518809Y-103956000D01*
X160614047Y-103908380D01*
X160852142Y-103908380D01*
X160947380Y-103956000D01*
X160995000Y-104003619D01*
X161042619Y-104098857D01*
X161042619Y-104194095D01*
X160995000Y-104336952D01*
X160423571Y-104908380D01*
X161042619Y-104908380D01*
X161614047Y-104336952D02*
X161518809Y-104289333D01*
X161471190Y-104241714D01*
X161423571Y-104146476D01*
X161423571Y-104098857D01*
X161471190Y-104003619D01*
X161518809Y-103956000D01*
X161614047Y-103908380D01*
X161804523Y-103908380D01*
X161899761Y-103956000D01*
X161947380Y-104003619D01*
X161995000Y-104098857D01*
X161995000Y-104146476D01*
X161947380Y-104241714D01*
X161899761Y-104289333D01*
X161804523Y-104336952D01*
X161614047Y-104336952D01*
X161518809Y-104384571D01*
X161471190Y-104432190D01*
X161423571Y-104527428D01*
X161423571Y-104717904D01*
X161471190Y-104813142D01*
X161518809Y-104860761D01*
X161614047Y-104908380D01*
X161804523Y-104908380D01*
X161899761Y-104860761D01*
X161947380Y-104813142D01*
X161995000Y-104717904D01*
X161995000Y-104527428D01*
X161947380Y-104432190D01*
X161899761Y-104384571D01*
X161804523Y-104336952D01*
X162899761Y-104908380D02*
X162423571Y-104908380D01*
X162423571Y-103908380D01*
X163566428Y-104384571D02*
X163233095Y-104384571D01*
X163233095Y-104908380D02*
X163233095Y-103908380D01*
X163709285Y-103908380D01*
X164280714Y-103908380D02*
X164375952Y-103908380D01*
X164471190Y-103956000D01*
X164518809Y-104003619D01*
X164566428Y-104098857D01*
X164614047Y-104289333D01*
X164614047Y-104527428D01*
X164566428Y-104717904D01*
X164518809Y-104813142D01*
X164471190Y-104860761D01*
X164375952Y-104908380D01*
X164280714Y-104908380D01*
X164185476Y-104860761D01*
X164137857Y-104813142D01*
X164090238Y-104717904D01*
X164042619Y-104527428D01*
X164042619Y-104289333D01*
X164090238Y-104098857D01*
X164137857Y-104003619D01*
X164185476Y-103956000D01*
X164280714Y-103908380D01*
X165471190Y-104241714D02*
X165471190Y-104908380D01*
X165233095Y-103860761D02*
X164995000Y-104575047D01*
X165614047Y-104575047D01*
X166185476Y-103908380D02*
X166280714Y-103908380D01*
X166375952Y-103956000D01*
X166423571Y-104003619D01*
X166471190Y-104098857D01*
X166518809Y-104289333D01*
X166518809Y-104527428D01*
X166471190Y-104717904D01*
X166423571Y-104813142D01*
X166375952Y-104860761D01*
X166280714Y-104908380D01*
X166185476Y-104908380D01*
X166090238Y-104860761D01*
X166042619Y-104813142D01*
X165995000Y-104717904D01*
X165947380Y-104527428D01*
X165947380Y-104289333D01*
X165995000Y-104098857D01*
X166042619Y-104003619D01*
X166090238Y-103956000D01*
X166185476Y-103908380D01*
D11*
X158217952Y-104187714D02*
X158598904Y-104187714D01*
X159479857Y-104378190D02*
X159194142Y-104378190D01*
X159337000Y-104378190D02*
X159337000Y-103878190D01*
X159289380Y-103949619D01*
X159241761Y-103997238D01*
X159194142Y-104021047D01*
D10*
X129356523Y-102782380D02*
X130023190Y-102782380D01*
X129594619Y-103782380D01*
X130832714Y-103115714D02*
X130832714Y-103782380D01*
X130594619Y-102734761D02*
X130356523Y-103449047D01*
X130975571Y-103449047D01*
X131356523Y-103782380D02*
X131356523Y-102782380D01*
X131356523Y-103258571D02*
X131927952Y-103258571D01*
X131927952Y-103782380D02*
X131927952Y-102782380D01*
X132975571Y-103687142D02*
X132927952Y-103734761D01*
X132785095Y-103782380D01*
X132689857Y-103782380D01*
X132547000Y-103734761D01*
X132451761Y-103639523D01*
X132404142Y-103544285D01*
X132356523Y-103353809D01*
X132356523Y-103210952D01*
X132404142Y-103020476D01*
X132451761Y-102925238D01*
X132547000Y-102830000D01*
X132689857Y-102782380D01*
X132785095Y-102782380D01*
X132927952Y-102830000D01*
X132975571Y-102877619D01*
X133308904Y-102782380D02*
X133927952Y-102782380D01*
X133594619Y-103163333D01*
X133737476Y-103163333D01*
X133832714Y-103210952D01*
X133880333Y-103258571D01*
X133927952Y-103353809D01*
X133927952Y-103591904D01*
X133880333Y-103687142D01*
X133832714Y-103734761D01*
X133737476Y-103782380D01*
X133451761Y-103782380D01*
X133356523Y-103734761D01*
X133308904Y-103687142D01*
X134261285Y-102782380D02*
X134927952Y-102782380D01*
X134499380Y-103782380D01*
X135213666Y-102782380D02*
X135832714Y-102782380D01*
X135499380Y-103163333D01*
X135642238Y-103163333D01*
X135737476Y-103210952D01*
X135785095Y-103258571D01*
X135832714Y-103353809D01*
X135832714Y-103591904D01*
X135785095Y-103687142D01*
X135737476Y-103734761D01*
X135642238Y-103782380D01*
X135356523Y-103782380D01*
X135261285Y-103734761D01*
X135213666Y-103687142D01*
X136213666Y-103496666D02*
X136689857Y-103496666D01*
X136118428Y-103782380D02*
X136451761Y-102782380D01*
X136785095Y-103782380D01*
D11*
X128527857Y-106878690D02*
X128242142Y-106878690D01*
X128385000Y-106878690D02*
X128385000Y-106378690D01*
X128337380Y-106450119D01*
X128289761Y-106497738D01*
X128242142Y-106521547D01*
X128385000Y-107850357D02*
X128385000Y-107136071D01*
X132991190Y-125168690D02*
X132991190Y-124668690D01*
X133181666Y-124668690D01*
X133229285Y-124692500D01*
X133253095Y-124716309D01*
X133276904Y-124763928D01*
X133276904Y-124835357D01*
X133253095Y-124882976D01*
X133229285Y-124906785D01*
X133181666Y-124930595D01*
X132991190Y-124930595D01*
X133467380Y-125025833D02*
X133705476Y-125025833D01*
X133419761Y-125168690D02*
X133586428Y-124668690D01*
X133753095Y-125168690D01*
X134157857Y-125168690D02*
X133919761Y-125168690D01*
X133919761Y-124668690D01*
X134610238Y-125121071D02*
X134586428Y-125144880D01*
X134515000Y-125168690D01*
X134467380Y-125168690D01*
X134395952Y-125144880D01*
X134348333Y-125097261D01*
X134324523Y-125049642D01*
X134300714Y-124954404D01*
X134300714Y-124882976D01*
X134324523Y-124787738D01*
X134348333Y-124740119D01*
X134395952Y-124692500D01*
X134467380Y-124668690D01*
X134515000Y-124668690D01*
X134586428Y-124692500D01*
X134610238Y-124716309D01*
X134824523Y-124906785D02*
X134991190Y-124906785D01*
X135062619Y-125168690D02*
X134824523Y-125168690D01*
X134824523Y-124668690D01*
X135062619Y-124668690D01*
X131193571Y-125521309D02*
X131217380Y-125497500D01*
X131265000Y-125473690D01*
X131384047Y-125473690D01*
X131431666Y-125497500D01*
X131455476Y-125521309D01*
X131479285Y-125568928D01*
X131479285Y-125616547D01*
X131455476Y-125687976D01*
X131169761Y-125973690D01*
X131479285Y-125973690D01*
X131788809Y-125473690D02*
X131836428Y-125473690D01*
X131884047Y-125497500D01*
X131907857Y-125521309D01*
X131931666Y-125568928D01*
X131955476Y-125664166D01*
X131955476Y-125783214D01*
X131931666Y-125878452D01*
X131907857Y-125926071D01*
X131884047Y-125949880D01*
X131836428Y-125973690D01*
X131788809Y-125973690D01*
X131741190Y-125949880D01*
X131717380Y-125926071D01*
X131693571Y-125878452D01*
X131669761Y-125783214D01*
X131669761Y-125664166D01*
X131693571Y-125568928D01*
X131717380Y-125521309D01*
X131741190Y-125497500D01*
X131788809Y-125473690D01*
X132098333Y-125473690D02*
X132265000Y-125973690D01*
X132431666Y-125473690D01*
X132669761Y-125687976D02*
X132622142Y-125664166D01*
X132598333Y-125640357D01*
X132574523Y-125592738D01*
X132574523Y-125568928D01*
X132598333Y-125521309D01*
X132622142Y-125497500D01*
X132669761Y-125473690D01*
X132765000Y-125473690D01*
X132812619Y-125497500D01*
X132836428Y-125521309D01*
X132860238Y-125568928D01*
X132860238Y-125592738D01*
X132836428Y-125640357D01*
X132812619Y-125664166D01*
X132765000Y-125687976D01*
X132669761Y-125687976D01*
X132622142Y-125711785D01*
X132598333Y-125735595D01*
X132574523Y-125783214D01*
X132574523Y-125878452D01*
X132598333Y-125926071D01*
X132622142Y-125949880D01*
X132669761Y-125973690D01*
X132765000Y-125973690D01*
X132812619Y-125949880D01*
X132836428Y-125926071D01*
X132860238Y-125878452D01*
X132860238Y-125783214D01*
X132836428Y-125735595D01*
X132812619Y-125711785D01*
X132765000Y-125687976D01*
X133074523Y-125973690D02*
X133074523Y-125473690D01*
X133074523Y-125711785D02*
X133360238Y-125711785D01*
X133360238Y-125973690D02*
X133360238Y-125473690D01*
X133598333Y-125783214D02*
X133979285Y-125783214D01*
X134193571Y-125521309D02*
X134217380Y-125497500D01*
X134265000Y-125473690D01*
X134384047Y-125473690D01*
X134431666Y-125497500D01*
X134455476Y-125521309D01*
X134479285Y-125568928D01*
X134479285Y-125616547D01*
X134455476Y-125687976D01*
X134169761Y-125973690D01*
X134479285Y-125973690D01*
X134931666Y-125473690D02*
X134693571Y-125473690D01*
X134669761Y-125711785D01*
X134693571Y-125687976D01*
X134741190Y-125664166D01*
X134860238Y-125664166D01*
X134907857Y-125687976D01*
X134931666Y-125711785D01*
X134955476Y-125759404D01*
X134955476Y-125878452D01*
X134931666Y-125926071D01*
X134907857Y-125949880D01*
X134860238Y-125973690D01*
X134741190Y-125973690D01*
X134693571Y-125949880D01*
X134669761Y-125926071D01*
X135312619Y-125473690D02*
X135312619Y-125830833D01*
X135288809Y-125902261D01*
X135241190Y-125949880D01*
X135169761Y-125973690D01*
X135122142Y-125973690D01*
X135836428Y-125926071D02*
X135812619Y-125949880D01*
X135741190Y-125973690D01*
X135693571Y-125973690D01*
X135622142Y-125949880D01*
X135574523Y-125902261D01*
X135550714Y-125854642D01*
X135526904Y-125759404D01*
X135526904Y-125687976D01*
X135550714Y-125592738D01*
X135574523Y-125545119D01*
X135622142Y-125497500D01*
X135693571Y-125473690D01*
X135741190Y-125473690D01*
X135812619Y-125497500D01*
X135836428Y-125521309D01*
X136407857Y-125449880D02*
X135979285Y-126092738D01*
X136788809Y-125640357D02*
X136788809Y-125973690D01*
X136669761Y-125449880D02*
X136550714Y-125807023D01*
X136860238Y-125807023D01*
X130396952Y-127170714D02*
X130777904Y-127170714D01*
X131658857Y-127361190D02*
X131373142Y-127361190D01*
X131516000Y-127361190D02*
X131516000Y-126861190D01*
X131468380Y-126932619D01*
X131420761Y-126980238D01*
X131373142Y-127004047D01*
M02*
