%TF.GenerationSoftware,KiCad,Pcbnew,(6.0.2)*%
%TF.CreationDate,2022-06-06T00:03:40-05:00*%
%TF.ProjectId,REF1347,52454631-3334-4372-9e6b-696361645f70,rev?*%
%TF.SameCoordinates,Original*%
%TF.FileFunction,Copper,L2,Bot*%
%TF.FilePolarity,Positive*%
%FSLAX46Y46*%
G04 Gerber Fmt 4.6, Leading zero omitted, Abs format (unit mm)*
G04 Created by KiCad (PCBNEW (6.0.2)) date 2022-06-06 00:03:40*
%MOMM*%
%LPD*%
G01*
G04 APERTURE LIST*
%TA.AperFunction,ComponentPad*%
%ADD10C,5.240000*%
%TD*%
%TA.AperFunction,ComponentPad*%
%ADD11C,1.860000*%
%TD*%
%TA.AperFunction,ComponentPad*%
%ADD12C,2.140000*%
%TD*%
%TA.AperFunction,ViaPad*%
%ADD13C,0.800000*%
%TD*%
%TA.AperFunction,Conductor*%
%ADD14C,0.600000*%
%TD*%
%TA.AperFunction,Conductor*%
%ADD15C,0.250000*%
%TD*%
G04 APERTURE END LIST*
D10*
%TO.P,REF\u002A\u002A,1*%
%TO.N,N/C*%
X149429000Y-131234000D03*
%TD*%
D11*
%TO.P,J2,1,+5V*%
%TO.N,/VCC*%
X173045000Y-73768000D03*
%TO.P,J2,2,Clock*%
%TO.N,/Clk*%
X171498500Y-75276000D03*
%TO.P,J2,3,Write*%
%TO.N,/Wr_Game*%
X170030100Y-73767900D03*
%TO.P,J2,4,Read*%
%TO.N,/Rd_Game*%
X168482000Y-75274000D03*
%TO.P,J2,5,CS*%
%TO.N,/CS*%
X167012000Y-73768000D03*
%TO.P,J2,6,A0*%
%TO.N,/A0*%
X165466000Y-75276000D03*
%TO.P,J2,7,A1*%
%TO.N,/A1*%
X163997600Y-73767900D03*
%TO.P,J2,8,A2*%
%TO.N,/A2*%
X162448000Y-75275000D03*
%TO.P,J2,9,A3*%
%TO.N,/A3*%
X161022000Y-73769000D03*
%TO.P,J2,10,A4*%
%TO.N,/A4*%
X159473200Y-75276000D03*
%TO.P,J2,11,A5*%
%TO.N,/A5*%
X157965100Y-73767900D03*
%TO.P,J2,12,A6*%
%TO.N,/A6*%
X156413000Y-75276000D03*
%TO.P,J2,13,A7*%
%TO.N,/A7*%
X154948800Y-73767900D03*
%TO.P,J2,14,A8*%
%TO.N,/A8*%
X153450000Y-75352000D03*
%TO.P,J2,15,A9*%
%TO.N,/A9*%
X152013000Y-73767000D03*
%TO.P,J2,16,A10*%
%TO.N,/A10*%
X150462000Y-75277000D03*
%TO.P,J2,17,A11*%
%TO.N,/A11*%
X148992000Y-73768000D03*
%TO.P,J2,18,A12*%
%TO.N,/A12*%
X147447000Y-75275000D03*
%TO.P,J2,19,A13*%
%TO.N,/A13*%
X145978000Y-73769000D03*
%TO.P,J2,20,A14*%
%TO.N,/A14*%
X144430000Y-75277000D03*
%TO.P,J2,21,A15*%
%TO.N,/A15_Game*%
X142962000Y-73767000D03*
%TO.P,J2,22,Data_0*%
%TO.N,/D0*%
X141417000Y-75275000D03*
%TO.P,J2,23,Data_1*%
%TO.N,/D1*%
X139984000Y-73766000D03*
%TO.P,J2,24,Data_2*%
%TO.N,/D2*%
X138481000Y-75361000D03*
%TO.P,J2,25,Data_3*%
%TO.N,/D3*%
X137049000Y-73771000D03*
%TO.P,J2,26,Data_4*%
%TO.N,/D4*%
X135498000Y-75274000D03*
%TO.P,J2,27,Data_5*%
%TO.N,/D5*%
X133953000Y-73769000D03*
%TO.P,J2,28,Data_6*%
%TO.N,/D6*%
X132446000Y-75276000D03*
%TO.P,J2,29,Data_7*%
%TO.N,/D7*%
X130939000Y-73769000D03*
%TO.P,J2,30,Reset*%
%TO.N,/Reset*%
X129432000Y-75284000D03*
%TO.P,J2,31,Audio*%
%TO.N,/Audio*%
X127917000Y-73769000D03*
%TO.P,J2,32,GND*%
%TO.N,/GND*%
X126413500Y-75276000D03*
%TD*%
D12*
%TO.P,J3,1,A*%
%TO.N,unconnected-(J3-Pad1)*%
X128824000Y-65999000D03*
%TO.P,J3,2,B*%
%TO.N,/I_13*%
X131368000Y-66000000D03*
%TO.P,J3,3,C*%
%TO.N,/GND*%
X133909000Y-65998000D03*
%TO.P,J3,4*%
%TO.N,N/C*%
X124984000Y-66008000D03*
%TO.P,J3,5*%
X137756000Y-66005000D03*
%TD*%
D13*
%TO.N,/GND*%
X167818500Y-114303600D03*
X154732400Y-128472700D03*
X168595200Y-105651200D03*
X143685400Y-128096400D03*
X173057900Y-135275700D03*
X168574300Y-128417900D03*
%TO.N,/O4*%
X154754300Y-104150800D03*
X138337600Y-103349900D03*
%TO.N,/O2*%
X154788200Y-105580900D03*
X135823800Y-107791000D03*
%TO.N,/O1*%
X136691400Y-107047200D03*
X154751500Y-106930900D03*
%TO.N,/A12*%
X156676800Y-131921700D03*
X150901400Y-135848400D03*
%TO.N,/A7*%
X146803500Y-86744900D03*
X150112300Y-123873700D03*
X137886100Y-130428800D03*
X155500800Y-119951600D03*
X143253000Y-136460700D03*
%TO.N,/A6*%
X162106400Y-100264500D03*
X157164200Y-133520700D03*
X142134200Y-137393600D03*
X161655300Y-116197800D03*
%TO.N,/A5*%
X141133800Y-137260300D03*
X160869300Y-112205600D03*
X159379700Y-130275700D03*
X162608000Y-101333200D03*
%TO.N,/A4*%
X140370000Y-137911300D03*
X163557100Y-100278000D03*
X161628700Y-130100500D03*
X162103100Y-112979500D03*
%TO.N,/A3*%
X162722900Y-129235800D03*
X139163900Y-138150500D03*
X163090700Y-112476600D03*
X165458100Y-100933500D03*
%TO.N,/A2*%
X165800900Y-112680500D03*
X137647100Y-138411000D03*
X164309000Y-131074600D03*
X166253400Y-100260800D03*
%TO.N,/A1*%
X166129000Y-111645800D03*
X167005600Y-100957800D03*
X165779100Y-130642000D03*
X136595300Y-138150500D03*
%TO.N,/A0*%
X167409300Y-130333800D03*
X167256000Y-111666800D03*
X135518100Y-138099000D03*
X167837000Y-100258900D03*
%TO.N,/D0*%
X146357100Y-114104500D03*
X141417000Y-108256900D03*
X159827500Y-113651000D03*
%TO.N,/D1*%
X168555900Y-130658200D03*
X167803900Y-115847100D03*
X132745500Y-111651800D03*
%TO.N,/D2*%
X133746000Y-111271100D03*
X138992300Y-98279200D03*
X160691000Y-138654600D03*
X167748600Y-103521200D03*
%TO.N,/D3*%
X171955500Y-108780200D03*
X130311100Y-112238000D03*
X172091600Y-127537300D03*
%TO.N,/D4*%
X172404100Y-121801800D03*
X168592500Y-101879200D03*
X172102500Y-126140500D03*
%TO.N,/D5*%
X172119800Y-101519200D03*
X172086000Y-125076600D03*
%TO.N,/D6*%
X170350000Y-99450100D03*
%TO.N,/D7*%
X171024100Y-114814200D03*
X173355100Y-102541800D03*
%TO.N,/CE_SST*%
X132018100Y-116502000D03*
X161072900Y-94606700D03*
%TO.N,/A10*%
X164475300Y-123230200D03*
X148082300Y-138294200D03*
X163351100Y-106996100D03*
%TO.N,/Rd_Sys*%
X163336700Y-105948400D03*
X164693000Y-119613300D03*
X133550400Y-128941700D03*
X134717300Y-137329700D03*
%TO.N,/A11*%
X160547900Y-124479700D03*
X134054100Y-130647700D03*
X148992000Y-118542700D03*
%TO.N,/A9*%
X150261600Y-119097900D03*
X160097600Y-123507500D03*
X151745700Y-83813000D03*
X134515200Y-135856000D03*
%TO.N,/A8*%
X144253400Y-136425200D03*
X152476000Y-85127500D03*
X160729000Y-119424500D03*
X158605500Y-108133300D03*
%TO.N,/A13*%
X159353500Y-124498500D03*
X152979700Y-123221400D03*
X140712200Y-133295800D03*
X151445200Y-85906000D03*
%TO.N,/O0*%
X155020200Y-99582000D03*
X133913000Y-104700100D03*
%TO.N,/O3*%
X140304700Y-107523400D03*
X153090400Y-107217100D03*
%TO.N,/Wr_Sys*%
X137759800Y-129177700D03*
X158289200Y-124215200D03*
X153748400Y-121867000D03*
%TO.N,/VCC*%
X154793400Y-103028300D03*
X136946500Y-114190000D03*
X164810800Y-115873600D03*
X134625700Y-123304900D03*
X135072700Y-104896600D03*
%TO.N,/CE_Atmel*%
X159737600Y-118903900D03*
X139731000Y-121619600D03*
%TO.N,/Atmel_A14*%
X171508000Y-113198500D03*
X163475000Y-63922200D03*
%TO.N,/A15*%
X141526900Y-130967000D03*
X153609400Y-132850400D03*
%TO.N,/O6*%
X137947000Y-124623200D03*
X134151300Y-106120600D03*
%TO.N,/LE*%
X139289400Y-107065200D03*
X136672000Y-119221700D03*
%TO.N,/Wr_Game*%
X132823800Y-71970200D03*
%TO.N,/Clk*%
X175006800Y-129520900D03*
X127598000Y-138639800D03*
%TO.N,/CS*%
X174395500Y-121422800D03*
X132078200Y-138652800D03*
%TO.N,/Reset*%
X166053000Y-67843800D03*
%TO.N,/Audio*%
X170611200Y-138341400D03*
%TD*%
D14*
%TO.N,/GND*%
X143685400Y-128096400D02*
X143857000Y-127924800D01*
X168595200Y-114245000D02*
X168536600Y-114303600D01*
X173057900Y-132901500D02*
X173057900Y-135275700D01*
X168574300Y-128417900D02*
X168736700Y-128255500D01*
X168536600Y-114303600D02*
X167818500Y-114303600D01*
X143857000Y-127924800D02*
X154184500Y-127924800D01*
X168574300Y-128417900D02*
X173057900Y-132901500D01*
X126413500Y-73246500D02*
X133662000Y-65998000D01*
X168736700Y-114503700D02*
X168536600Y-114303600D01*
X154184500Y-127924800D02*
X154732400Y-128472700D01*
X168595200Y-105651200D02*
X168595200Y-114245000D01*
X126413500Y-75276000D02*
X126413500Y-73246500D01*
X133662000Y-65998000D02*
X133909000Y-65998000D01*
X168736700Y-128255500D02*
X168736700Y-114503700D01*
D15*
%TO.N,/O4*%
X139138500Y-104150800D02*
X138337600Y-103349900D01*
X154754300Y-104150800D02*
X139138500Y-104150800D01*
%TO.N,/O2*%
X137096700Y-105580900D02*
X154788200Y-105580900D01*
X135823800Y-107791000D02*
X135823800Y-106853800D01*
X135823800Y-106853800D02*
X137096700Y-105580900D01*
%TO.N,/O1*%
X154751500Y-106930900D02*
X154118900Y-106298300D01*
X137440300Y-106298300D02*
X136691400Y-107047200D01*
X154118900Y-106298300D02*
X137440300Y-106298300D01*
%TO.N,/A12*%
X156676800Y-131921700D02*
X152750100Y-135848400D01*
X152750100Y-135848400D02*
X150901400Y-135848400D01*
%TO.N,/A7*%
X140434300Y-134058000D02*
X137886100Y-131509800D01*
X154034400Y-119951600D02*
X150112300Y-123873700D01*
X137886100Y-131509800D02*
X137886100Y-130428800D01*
X143253000Y-136460700D02*
X140850300Y-134058000D01*
X137034500Y-128851400D02*
X137034500Y-129577200D01*
X154948800Y-83740400D02*
X151944300Y-86744900D01*
X142012200Y-123873700D02*
X137034500Y-128851400D01*
X150112300Y-123873700D02*
X142012200Y-123873700D01*
X137034500Y-129577200D02*
X137886100Y-130428800D01*
X154948800Y-73767900D02*
X154948800Y-83740400D01*
X151944300Y-86744900D02*
X146803500Y-86744900D01*
X155500800Y-119951600D02*
X154034400Y-119951600D01*
X140850300Y-134058000D02*
X140434300Y-134058000D01*
%TO.N,/A6*%
X161655300Y-116197800D02*
X162225800Y-116768300D01*
X156413000Y-87647200D02*
X162698800Y-93933000D01*
X162225800Y-126236800D02*
X160188200Y-128274400D01*
X146096300Y-137668700D02*
X142409300Y-137668700D01*
X142409300Y-137668700D02*
X142134200Y-137393600D01*
X162225800Y-116768300D02*
X162225800Y-126236800D01*
X153660800Y-137024100D02*
X149655900Y-137024100D01*
X147096700Y-136668300D02*
X146096300Y-137668700D01*
X160188200Y-128274400D02*
X160188200Y-130496700D01*
X149655900Y-137024100D02*
X149300100Y-136668300D01*
X160188200Y-130496700D02*
X157164200Y-133520700D01*
X162698800Y-93933000D02*
X162698800Y-95480200D01*
X162698800Y-95480200D02*
X162106400Y-96072600D01*
X157164200Y-133520700D02*
X153660800Y-137024100D01*
X156413000Y-75276000D02*
X156413000Y-87647200D01*
X149300100Y-136668300D02*
X147096700Y-136668300D01*
X162106400Y-96072600D02*
X162106400Y-100264500D01*
%TO.N,/A5*%
X142984800Y-137218400D02*
X145596600Y-137218400D01*
X149842500Y-136573800D02*
X153081600Y-136573800D01*
X162608000Y-101333200D02*
X162831700Y-101109500D01*
X160930000Y-115272300D02*
X161010100Y-115192200D01*
X141725800Y-136668300D02*
X142434700Y-136668300D01*
X141133800Y-137260300D02*
X141725800Y-136668300D01*
X161010100Y-112346400D02*
X160869300Y-112205600D01*
X142434700Y-136668300D02*
X142984800Y-137218400D01*
X146597000Y-136218000D02*
X149486700Y-136218000D01*
X149486700Y-136218000D02*
X149842500Y-136573800D01*
X161723600Y-119393000D02*
X160930000Y-118599400D01*
X162831700Y-101109500D02*
X162831700Y-95984200D01*
X157965100Y-79664800D02*
X157965100Y-73767900D01*
X163149100Y-95666800D02*
X163149100Y-84848800D01*
X159379700Y-130275700D02*
X159379700Y-128229400D01*
X159379700Y-128229400D02*
X161723600Y-125885500D01*
X162831700Y-95984200D02*
X163149100Y-95666800D01*
X153081600Y-136573800D02*
X159379700Y-130275700D01*
X160930000Y-118599400D02*
X160930000Y-115272300D01*
X161723600Y-125885500D02*
X161723600Y-119393000D01*
X161010100Y-115192200D02*
X161010100Y-112346400D01*
X145596600Y-137218400D02*
X146597000Y-136218000D01*
X163149100Y-84848800D02*
X157965100Y-79664800D01*
%TO.N,/A4*%
X140577700Y-138119000D02*
X146289700Y-138119000D01*
X154254800Y-137474400D02*
X161628700Y-130100500D01*
X148925200Y-137474400D02*
X154254800Y-137474400D01*
X163599400Y-100235700D02*
X163557100Y-100278000D01*
X148569400Y-137118600D02*
X148925200Y-137474400D01*
X162686700Y-113563100D02*
X162686700Y-126412800D01*
X162103100Y-112979500D02*
X162686700Y-113563100D01*
X159473200Y-78338300D02*
X163599400Y-82464500D01*
X159473200Y-75276000D02*
X159473200Y-78338300D01*
X162686700Y-126412800D02*
X161628700Y-127470800D01*
X161628700Y-127470800D02*
X161628700Y-130100500D01*
X140370000Y-137911300D02*
X140577700Y-138119000D01*
X163599400Y-82464500D02*
X163599400Y-100235700D01*
X147290100Y-137118600D02*
X148569400Y-137118600D01*
X146289700Y-138119000D02*
X147290100Y-137118600D01*
%TO.N,/A3*%
X154787200Y-137967800D02*
X148781700Y-137967800D01*
X148382800Y-137568900D02*
X147701600Y-137568900D01*
X163137100Y-128821600D02*
X162722900Y-129235800D01*
X139582700Y-138569300D02*
X139163900Y-138150500D01*
X163137100Y-112523000D02*
X163137100Y-128821600D01*
X162722900Y-129235800D02*
X162722900Y-130032100D01*
X161022000Y-77689400D02*
X165458100Y-82125500D01*
X161022000Y-73769000D02*
X161022000Y-77689400D01*
X147701600Y-137568900D02*
X146701200Y-138569300D01*
X148781700Y-137967800D02*
X148382800Y-137568900D01*
X162722900Y-130032100D02*
X154787200Y-137967800D01*
X146701200Y-138569300D02*
X139582700Y-138569300D01*
X163090700Y-112476600D02*
X163137100Y-112523000D01*
X165458100Y-82125500D02*
X165458100Y-100933500D01*
%TO.N,/A2*%
X164309000Y-131074600D02*
X165800900Y-129582700D01*
X155913700Y-139469900D02*
X138706000Y-139469900D01*
X162448000Y-75275000D02*
X166253400Y-79080400D01*
X166253400Y-79080400D02*
X166253400Y-100260800D01*
X165800900Y-129582700D02*
X165800900Y-112680500D01*
X138706000Y-139469900D02*
X137647100Y-138411000D01*
X164309000Y-131074600D02*
X155913700Y-139469900D01*
%TO.N,/A1*%
X167005600Y-100957800D02*
X167005600Y-79118600D01*
X163997600Y-76110600D02*
X163997600Y-73767900D01*
X138077900Y-139920200D02*
X136595300Y-138437600D01*
X156500900Y-139920200D02*
X138077900Y-139920200D01*
X165779100Y-130642000D02*
X156500900Y-139920200D01*
X166561400Y-112078200D02*
X166129000Y-111645800D01*
X166561400Y-129859700D02*
X166561400Y-112078200D01*
X167005600Y-79118600D02*
X163997600Y-76110600D01*
X165779100Y-130642000D02*
X166561400Y-129859700D01*
X136595300Y-138437600D02*
X136595300Y-138150500D01*
%TO.N,/A0*%
X167837000Y-77647000D02*
X167837000Y-100258900D01*
X137789600Y-140370500D02*
X135518100Y-138099000D01*
X167409300Y-130333800D02*
X167046100Y-129970600D01*
X167046100Y-129970600D02*
X167046100Y-111876700D01*
X167046100Y-111876700D02*
X167256000Y-111666800D01*
X157372600Y-140370500D02*
X137789600Y-140370500D01*
X167409300Y-130333800D02*
X157372600Y-140370500D01*
X165466000Y-75276000D02*
X167837000Y-77647000D01*
%TO.N,/D0*%
X146810600Y-113651000D02*
X146810600Y-113650500D01*
X159827500Y-113651000D02*
X146810600Y-113651000D01*
X146810600Y-113651000D02*
X146357100Y-114104500D01*
X146810600Y-113650500D02*
X141417000Y-108256900D01*
%TO.N,/D1*%
X168437400Y-129377000D02*
X168437400Y-130658200D01*
X132373500Y-136648500D02*
X132373500Y-118225700D01*
X168437400Y-130658200D02*
X168437400Y-132006800D01*
X159173100Y-141271100D02*
X136996100Y-141271100D01*
X168437400Y-132006800D02*
X159173100Y-141271100D01*
X168437400Y-130658200D02*
X168555900Y-130658200D01*
X132745500Y-117853700D02*
X132745500Y-111651800D01*
X167803900Y-128743500D02*
X168437400Y-129377000D01*
X132373500Y-118225700D02*
X132745500Y-117853700D01*
X167803900Y-115847100D02*
X167803900Y-128743500D01*
X136996100Y-141271100D02*
X132373500Y-136648500D01*
%TO.N,/D2*%
X158524800Y-140820800D02*
X137182700Y-140820800D01*
X161960100Y-103521200D02*
X157288700Y-98849800D01*
X133187700Y-110923700D02*
X133535100Y-111271100D01*
X157288700Y-98849800D02*
X138992300Y-98849800D01*
X133187700Y-104399700D02*
X133187700Y-110923700D01*
X133411600Y-127627100D02*
X133411600Y-112011600D01*
X138992300Y-98849800D02*
X138737600Y-98849800D01*
X133535100Y-111271100D02*
X133746000Y-111271100D01*
X167748600Y-103521200D02*
X161960100Y-103521200D01*
X132825100Y-136463200D02*
X132825100Y-128213600D01*
X138992300Y-98849800D02*
X138992300Y-98279200D01*
X137182700Y-140820800D02*
X132825100Y-136463200D01*
X160691000Y-138654600D02*
X158524800Y-140820800D01*
X138737600Y-98849800D02*
X133187700Y-104399700D01*
X132825100Y-128213600D02*
X133411600Y-127627100D01*
X133535100Y-111888100D02*
X133535100Y-111271100D01*
X133411600Y-112011600D02*
X133535100Y-111888100D01*
%TO.N,/D3*%
X173790100Y-136206200D02*
X167824600Y-142171700D01*
X130311100Y-135859900D02*
X130311100Y-112238000D01*
X136622900Y-142171700D02*
X130311100Y-135859900D01*
X172091600Y-127537300D02*
X173790100Y-129235800D01*
X173262100Y-110086800D02*
X173262100Y-126366800D01*
X171955500Y-108780200D02*
X173262100Y-110086800D01*
X167824600Y-142171700D02*
X136622900Y-142171700D01*
X173790100Y-129235800D02*
X173790100Y-136206200D01*
X173262100Y-126366800D02*
X172091600Y-127537300D01*
%TO.N,/D4*%
X162248500Y-94119600D02*
X161335200Y-93206300D01*
X162248500Y-95293600D02*
X162248500Y-94119600D01*
X172811300Y-125431700D02*
X172811300Y-122209000D01*
X135498000Y-76531800D02*
X135498000Y-75274000D01*
X161355600Y-96186500D02*
X162248500Y-95293600D01*
X161335200Y-93206300D02*
X152172500Y-93206300D01*
X161355600Y-101176500D02*
X161355600Y-96186500D01*
X152172500Y-93206300D02*
X135498000Y-76531800D01*
X172811300Y-122209000D02*
X172404100Y-121801800D01*
X172102500Y-126140500D02*
X172811300Y-125431700D01*
X162253100Y-102074000D02*
X161355600Y-101176500D01*
X168397700Y-102074000D02*
X162253100Y-102074000D01*
X168592500Y-101879200D02*
X168397700Y-102074000D01*
%TO.N,/D5*%
X132057100Y-71711000D02*
X132057100Y-72242500D01*
X170293100Y-103345900D02*
X172119800Y-101519200D01*
X170293100Y-123283700D02*
X170293100Y-103345900D01*
X172374900Y-71244800D02*
X132523300Y-71244800D01*
X133583600Y-73769000D02*
X133953000Y-73769000D01*
X132057100Y-72242500D02*
X133583600Y-73769000D01*
X174300700Y-73170600D02*
X172374900Y-71244800D01*
X172119800Y-101519200D02*
X174300700Y-99338300D01*
X132523300Y-71244800D02*
X132057100Y-71711000D01*
X172086000Y-125076600D02*
X170293100Y-123283700D01*
X174300700Y-99338300D02*
X174300700Y-73170600D01*
%TO.N,/D6*%
X161307600Y-93815600D02*
X161798200Y-94306200D01*
X168894300Y-102637000D02*
X170350000Y-101181300D01*
X160905200Y-101445500D02*
X162096700Y-102637000D01*
X161798200Y-94306200D02*
X161798200Y-94913200D01*
X132446000Y-75276000D02*
X150985600Y-93815600D01*
X160905200Y-95806200D02*
X160905200Y-101445500D01*
X161798200Y-94913200D02*
X160905200Y-95806200D01*
X150985600Y-93815600D02*
X161307600Y-93815600D01*
X162096700Y-102637000D02*
X168894300Y-102637000D01*
X170350000Y-101181300D02*
X170350000Y-99450100D01*
%TO.N,/D7*%
X173355100Y-102541800D02*
X170779900Y-105117000D01*
X170779900Y-105117000D02*
X170779900Y-114570000D01*
X174751000Y-72984000D02*
X174751000Y-101145900D01*
X132336700Y-70794500D02*
X172561500Y-70794500D01*
X170779900Y-114570000D02*
X171024100Y-114814200D01*
X174751000Y-101145900D02*
X173355100Y-102541800D01*
X172561500Y-70794500D02*
X174751000Y-72984000D01*
X130939000Y-72192200D02*
X132336700Y-70794500D01*
X130939000Y-73769000D02*
X130939000Y-72192200D01*
%TO.N,/CE_SST*%
X161072900Y-94606700D02*
X141554900Y-94606700D01*
X141554900Y-94606700D02*
X132018100Y-104143500D01*
X132018100Y-104143500D02*
X132018100Y-116502000D01*
%TO.N,/A10*%
X148219900Y-138431800D02*
X148082300Y-138294200D01*
X164475300Y-123230200D02*
X164475300Y-128916600D01*
X163816000Y-107461000D02*
X163351100Y-106996100D01*
X154960100Y-138431800D02*
X148219900Y-138431800D01*
X163816000Y-112777100D02*
X163816000Y-107461000D01*
X163635000Y-112958100D02*
X163816000Y-112777100D01*
X164475300Y-123230200D02*
X163635000Y-122389900D01*
X164475300Y-128916600D02*
X154960100Y-138431800D01*
X163635000Y-122389900D02*
X163635000Y-112958100D01*
%TO.N,/Rd_Sys*%
X134727500Y-137319500D02*
X134717300Y-137329700D01*
X164085400Y-115509700D02*
X164266300Y-115328800D01*
X165229200Y-120149500D02*
X165229200Y-128799600D01*
X133550400Y-128941700D02*
X133328800Y-129163300D01*
X164266300Y-115328800D02*
X164266300Y-106878000D01*
X138372400Y-138057300D02*
X137634600Y-137319500D01*
X165229200Y-128799600D02*
X155009200Y-139019600D01*
X155009200Y-139019600D02*
X138976700Y-139019600D01*
X164693000Y-119613300D02*
X164085400Y-119005700D01*
X137634600Y-137319500D02*
X134727500Y-137319500D01*
X164085400Y-119005700D02*
X164085400Y-115509700D01*
X133328800Y-135920800D02*
X134727500Y-137319500D01*
X164266300Y-106878000D02*
X163336700Y-105948400D01*
X138976700Y-139019600D02*
X138372400Y-138415300D01*
X133328800Y-129163300D02*
X133328800Y-135920800D01*
X138372400Y-138415300D02*
X138372400Y-138057300D01*
X164693000Y-119613300D02*
X165229200Y-120149500D01*
%TO.N,/A11*%
X146008300Y-118542700D02*
X148992000Y-118542700D01*
X149174200Y-118360500D02*
X148992000Y-118542700D01*
X134054100Y-130647700D02*
X134054100Y-130496900D01*
X160823000Y-124204600D02*
X160823000Y-123142100D01*
X160547900Y-124479700D02*
X160823000Y-124204600D01*
X134054100Y-130496900D02*
X146008300Y-118542700D01*
X156041400Y-118360500D02*
X149174200Y-118360500D01*
X160823000Y-123142100D02*
X156041400Y-118360500D01*
%TO.N,/A9*%
X145794500Y-119443300D02*
X149916200Y-119443300D01*
X135092700Y-130145100D02*
X145794500Y-119443300D01*
X134515200Y-135856000D02*
X135092700Y-135278500D01*
X152013000Y-73767000D02*
X152013000Y-83545700D01*
X149916200Y-119443300D02*
X150261600Y-119097900D01*
X152013000Y-83545700D02*
X151745700Y-83813000D01*
X155688000Y-119097900D02*
X150261600Y-119097900D01*
X135092700Y-135278500D02*
X135092700Y-130145100D01*
X160097600Y-123507500D02*
X155688000Y-119097900D01*
%TO.N,/A8*%
X154392000Y-133108400D02*
X152527300Y-134973100D01*
X160729000Y-119424500D02*
X161273300Y-119968800D01*
X160556000Y-113227500D02*
X158605500Y-111277000D01*
X161273300Y-119968800D02*
X161273300Y-125019200D01*
X160729000Y-119424500D02*
X160474600Y-119170100D01*
X154392000Y-131900500D02*
X154392000Y-133108400D01*
X145705500Y-134973100D02*
X144253400Y-136425200D01*
X160474600Y-119170100D02*
X160474600Y-115090800D01*
X161273300Y-125019200D02*
X154392000Y-131900500D01*
X158605500Y-111277000D02*
X158605500Y-108133300D01*
X152476000Y-76326000D02*
X153450000Y-75352000D01*
X152476000Y-85127500D02*
X152476000Y-76326000D01*
X152527300Y-134973100D02*
X145705500Y-134973100D01*
X160556000Y-115009400D02*
X160556000Y-113227500D01*
X160474600Y-115090800D02*
X160556000Y-115009400D01*
%TO.N,/A13*%
X152979700Y-123221400D02*
X152979700Y-124900800D01*
X143753100Y-126920800D02*
X150959700Y-126920800D01*
X153019400Y-124940500D02*
X158911500Y-124940500D01*
X151445200Y-85906000D02*
X145978000Y-80438800D01*
X145978000Y-80438800D02*
X145978000Y-73769000D01*
X158911500Y-124940500D02*
X159353500Y-124498500D01*
X150959700Y-126920800D02*
X152979700Y-124900800D01*
X140712200Y-133295800D02*
X140712200Y-129961700D01*
X152979700Y-124900800D02*
X153019400Y-124940500D01*
X140712200Y-129961700D02*
X143753100Y-126920800D01*
%TO.N,/O0*%
X139031100Y-99582000D02*
X155020200Y-99582000D01*
X133913000Y-104700100D02*
X139031100Y-99582000D01*
%TO.N,/O3*%
X153090400Y-107217100D02*
X152784100Y-107523400D01*
X152784100Y-107523400D02*
X140304700Y-107523400D01*
%TO.N,/Wr_Sys*%
X153748400Y-122496100D02*
X156570100Y-122496100D01*
X152628300Y-122496100D02*
X149770500Y-125353900D01*
X156570100Y-122496100D02*
X158289200Y-124215200D01*
X141583600Y-125353900D02*
X137759800Y-129177700D01*
X153748400Y-122496100D02*
X152628300Y-122496100D01*
X149770500Y-125353900D02*
X141583600Y-125353900D01*
X153748400Y-121867000D02*
X153748400Y-122496100D01*
D14*
%TO.N,/VCC*%
X171219500Y-101358500D02*
X166998900Y-105579100D01*
X173045000Y-99320800D02*
X171219500Y-101146300D01*
X166998900Y-105579100D02*
X164900600Y-105579100D01*
X136713300Y-111613600D02*
X134904200Y-109804500D01*
X137538900Y-102430400D02*
X154195500Y-102430400D01*
X134904200Y-109804500D02*
X134904200Y-106676500D01*
X164900600Y-105579100D02*
X164343200Y-105021700D01*
X164343200Y-105021700D02*
X162336300Y-105021700D01*
X162336300Y-105021700D02*
X160342900Y-103028300D01*
X135072700Y-106508000D02*
X135072700Y-104896600D01*
X134904200Y-106676500D02*
X135072700Y-106508000D01*
X164900600Y-115783800D02*
X164810800Y-115873600D01*
X160342900Y-103028300D02*
X154793400Y-103028300D01*
X134625700Y-116277600D02*
X136713300Y-114190000D01*
X164900600Y-105579100D02*
X164900600Y-115783800D01*
X154195500Y-102430400D02*
X154793400Y-103028300D01*
X173045000Y-73768000D02*
X173045000Y-99320800D01*
X136713300Y-114190000D02*
X136946500Y-114190000D01*
X134625700Y-123304900D02*
X134625700Y-116277600D01*
X171219500Y-101146300D02*
X171219500Y-101358500D01*
X135072700Y-104896600D02*
X137538900Y-102430400D01*
X136713300Y-114190000D02*
X136713300Y-111613600D01*
D15*
%TO.N,/CE_Atmel*%
X158649700Y-117816000D02*
X159737600Y-118903900D01*
X143534600Y-117816000D02*
X158649700Y-117816000D01*
X139731000Y-121619600D02*
X143534600Y-117816000D01*
%TO.N,/Atmel_A14*%
X175257600Y-72838100D02*
X175257600Y-103204100D01*
X171230200Y-107231500D02*
X171230200Y-112920700D01*
X175257600Y-103204100D02*
X171230200Y-107231500D01*
X171230200Y-112920700D02*
X171508000Y-113198500D01*
X166341700Y-63922200D02*
X175257600Y-72838100D01*
X163475000Y-63922200D02*
X166341700Y-63922200D01*
%TO.N,/A15*%
X153609400Y-132850400D02*
X153609400Y-133254100D01*
X153609400Y-133254100D02*
X152424800Y-134438700D01*
X152424800Y-134438700D02*
X144998600Y-134438700D01*
X144998600Y-134438700D02*
X141526900Y-130967000D01*
%TO.N,/O6*%
X134151300Y-110650600D02*
X134151300Y-106120600D01*
X133900300Y-123645900D02*
X133900300Y-112327500D01*
X133900300Y-112327500D02*
X134471300Y-111756500D01*
X137947000Y-124623200D02*
X134877600Y-124623200D01*
X134471300Y-111756500D02*
X134471300Y-110970600D01*
X134877600Y-124623200D02*
X133900300Y-123645900D01*
X134471300Y-110970600D02*
X134151300Y-110650600D01*
%TO.N,/LE*%
X139289400Y-116604300D02*
X136672000Y-119221700D01*
X139289400Y-107065200D02*
X139289400Y-116604300D01*
%TO.N,/Wr_Game*%
X170030100Y-73767900D02*
X168232400Y-71970200D01*
X168232400Y-71970200D02*
X132823800Y-71970200D01*
%TO.N,/Clk*%
X175006800Y-129520900D02*
X175006800Y-136263300D01*
X168142100Y-143128000D02*
X132086200Y-143128000D01*
X175006800Y-136263300D02*
X168142100Y-143128000D01*
X132086200Y-143128000D02*
X127598000Y-138639800D01*
%TO.N,/CS*%
X136085900Y-142660500D02*
X132078200Y-138652800D01*
X167972700Y-142660500D02*
X136085900Y-142660500D01*
X174395500Y-121422800D02*
X174254200Y-121564100D01*
X174254200Y-136379000D02*
X167972700Y-142660500D01*
X174254200Y-121564100D02*
X174254200Y-136379000D01*
%TO.N,/Reset*%
X134646800Y-67843800D02*
X166053000Y-67843800D01*
X129432000Y-73058600D02*
X134646800Y-67843800D01*
X129432000Y-75284000D02*
X129432000Y-73058600D01*
%TO.N,/Audio*%
X131036500Y-135948400D02*
X131036500Y-111924300D01*
X170611200Y-138341400D02*
X167231200Y-141721400D01*
X136809500Y-141721400D02*
X131036500Y-135948400D01*
X127917000Y-108804800D02*
X127917000Y-73769000D01*
X131036500Y-111924300D02*
X127917000Y-108804800D01*
X167231200Y-141721400D02*
X136809500Y-141721400D01*
%TD*%
M02*
