%TF.GenerationSoftware,KiCad,Pcbnew,(6.0.2)*%
%TF.CreationDate,2022-09-16T18:12:16-05:00*%
%TF.ProjectId,REF1347,52454631-3334-4372-9e6b-696361645f70,rev?*%
%TF.SameCoordinates,Original*%
%TF.FileFunction,Paste,Top*%
%TF.FilePolarity,Positive*%
%FSLAX46Y46*%
G04 Gerber Fmt 4.6, Leading zero omitted, Abs format (unit mm)*
G04 Created by KiCad (PCBNEW (6.0.2)) date 2022-09-16 18:12:16*
%MOMM*%
%LPD*%
G01*
G04 APERTURE LIST*
%ADD10R,1.500000X6.250000*%
%ADD11R,1.000000X6.000000*%
%ADD12R,2.300000X0.650000*%
%ADD13R,0.650000X2.300000*%
%ADD14O,0.600000X1.865000*%
%ADD15R,1.670000X1.670000*%
%ADD16R,0.700000X2.000000*%
G04 APERTURE END LIST*
D10*
%TO.C,J1*%
X125879000Y-143608000D03*
D11*
X127629258Y-143483000D03*
X129129516Y-143483000D03*
X130629774Y-143483000D03*
X132130032Y-143483000D03*
X133630290Y-143483000D03*
X135130548Y-143483000D03*
X136630806Y-143483000D03*
X138131064Y-143483000D03*
X139631322Y-143483000D03*
X141131580Y-143483000D03*
X142631838Y-143483000D03*
X144132096Y-143483000D03*
X145632354Y-143483000D03*
X147132612Y-143483000D03*
X148632870Y-143483000D03*
X150133128Y-143483000D03*
X151633386Y-143483000D03*
X153133644Y-143483000D03*
X154633902Y-143483000D03*
X156134160Y-143483000D03*
X157634418Y-143483000D03*
X159134676Y-143483000D03*
X160634934Y-143483000D03*
X162135192Y-143483000D03*
X163635450Y-143483000D03*
X165135708Y-143483000D03*
X166635966Y-143483000D03*
X168136224Y-143483000D03*
X169636482Y-143483000D03*
X171136740Y-143483000D03*
D10*
X172887000Y-143608000D03*
%TD*%
D12*
%TO.C,U1*%
X156549000Y-104195000D03*
X156547000Y-105467000D03*
X156548000Y-106736000D03*
X156548000Y-108006000D03*
D13*
X158369000Y-109896000D03*
X159638000Y-109896000D03*
X160909000Y-109894000D03*
X162179000Y-109895000D03*
X163445000Y-109896000D03*
X164718000Y-109897000D03*
X165989000Y-109895000D03*
X167256000Y-109897000D03*
X168526000Y-109894000D03*
D12*
X170350000Y-108003000D03*
X170347000Y-106734000D03*
X170351000Y-105465000D03*
X170350000Y-104196000D03*
X170350000Y-102928000D03*
X170351000Y-101655000D03*
X170350000Y-100384000D03*
D13*
X168532000Y-98494000D03*
X167256000Y-98494000D03*
X165991000Y-98494000D03*
X164715000Y-98498000D03*
X163451000Y-98493000D03*
X162178000Y-98500000D03*
X160910000Y-98499000D03*
X159638000Y-98499000D03*
X158367000Y-98498000D03*
D12*
X156551000Y-100386000D03*
X156551000Y-101654000D03*
X156546000Y-102926000D03*
%TD*%
D14*
%TO.C,U3*%
X128391000Y-109569000D03*
X129671000Y-109569000D03*
X130951000Y-109569000D03*
X132231000Y-109569000D03*
X133511000Y-109569000D03*
X134791000Y-109569000D03*
X136071000Y-109569000D03*
X137351000Y-109569000D03*
X138631000Y-109569000D03*
X139911000Y-109569000D03*
X139911000Y-99969000D03*
X138631000Y-99969000D03*
X137351000Y-99969000D03*
X136071000Y-99969000D03*
X134791000Y-99969000D03*
X133511000Y-99969000D03*
X132231000Y-99969000D03*
X130951000Y-99969000D03*
X129671000Y-99969000D03*
X128391000Y-99969000D03*
%TD*%
D15*
%TO.C,R1*%
X142800000Y-66475000D03*
X145931000Y-66466000D03*
%TD*%
D12*
%TO.C,U2*%
X156527000Y-127164000D03*
X156525000Y-128436000D03*
X156526000Y-129705000D03*
X156526000Y-130975000D03*
D13*
X158347000Y-132865000D03*
X159616000Y-132865000D03*
X160887000Y-132863000D03*
X162157000Y-132864000D03*
X163423000Y-132865000D03*
X164696000Y-132866000D03*
X165967000Y-132864000D03*
X167234000Y-132866000D03*
X168504000Y-132863000D03*
D12*
X170328000Y-130972000D03*
X170325000Y-129703000D03*
X170329000Y-128434000D03*
X170328000Y-127165000D03*
X170328000Y-125897000D03*
X170329000Y-124624000D03*
X170328000Y-123353000D03*
D13*
X168510000Y-121463000D03*
X167234000Y-121463000D03*
X165969000Y-121463000D03*
X164693000Y-121467000D03*
X163429000Y-121462000D03*
X162156000Y-121469000D03*
X160888000Y-121468000D03*
X159616000Y-121468000D03*
X158345000Y-121467000D03*
D12*
X156529000Y-123355000D03*
X156529000Y-124623000D03*
X156524000Y-125895000D03*
%TD*%
%TO.C,U4*%
X128527000Y-127158000D03*
X128527000Y-128423000D03*
X128528000Y-129694000D03*
X128522000Y-130965000D03*
D13*
X130317000Y-132754000D03*
X131589000Y-132755000D03*
X132856000Y-132752000D03*
X134129000Y-132751000D03*
X135399000Y-132755000D03*
X136670000Y-132752000D03*
X137936000Y-132754000D03*
D12*
X139729000Y-130967000D03*
X139728000Y-129693000D03*
X139728000Y-128423000D03*
X139728000Y-127151000D03*
X139731000Y-125886000D03*
X139728000Y-124616000D03*
X139731000Y-123345000D03*
D13*
X137938000Y-121554000D03*
X136672000Y-121553000D03*
X135397000Y-121553000D03*
X134125000Y-121552000D03*
X132857000Y-121558000D03*
X131588000Y-121551000D03*
X130318000Y-121549000D03*
D12*
X128529000Y-123341000D03*
X128525000Y-124613000D03*
X128530000Y-125886000D03*
%TD*%
D15*
%TO.C,C2*%
X163133000Y-115667000D03*
X166264000Y-115658000D03*
%TD*%
%TO.C,C1*%
X133815500Y-115680500D03*
X136946500Y-115671500D03*
%TD*%
D16*
%TO.C,U5*%
X162205000Y-69452000D03*
X163474000Y-69449000D03*
X164784000Y-69451000D03*
X166053000Y-69451000D03*
X166055000Y-62306000D03*
X164784000Y-62307000D03*
X163475000Y-62306000D03*
X162206000Y-62309000D03*
%TD*%
M02*
